<svg width="375" height="7" viewBox="0 0 375 7" fill="none" xmlns="http://www.w3.org/2000/svg">
<path d="M-64.6684 4.58871C-64.0319 4.07079 -64.595 3.20109 -61.8288 3.32812C-46.5782 3.99262 -31.6703 2.54637 -16.6155 1.93073C-6.67692 1.53008 3.35959 1.53986 13.3716 1.51054C26.2477 1.47145 39.1238 1.51054 52 1.64735C66.4917 1.81348 80.959 1.81348 95.4018 1.41283C104.41 1.15876 113.419 1.08058 122.427 0.982862C123.112 0.982863 123.798 0.924231 124.189 1.24671C124.189 1.23693 124.214 1.22716 124.238 1.21739C124.238 1.21739 124.287 1.16853 124.336 1.14899L124.41 1.19785C128.033 1.05127 131.656 0.846055 135.279 0.777652C144.262 0.611529 153.271 0.748337 162.206 0.249967C165.217 0.0838434 168.228 0.386775 171.288 0.337915C183.038 0.152249 194.837 0.142478 206.611 0.122935C218.582 0.103392 230.552 0.132709 242.498 0.162026C258.654 0.191343 274.786 0.230433 290.942 0.289066C301.934 0.328155 312.925 0.435648 323.941 0.484509C334.54 0.523597 345.164 0.367247 355.764 0.611547C361.565 0.748356 367.342 0.758128 373.119 0.7679C375.396 0.767901 377.575 0.924253 379.753 0.289074C380.806 -0.0138577 382.936 -0.307017 383.964 0.679954C384.355 1.05129 385.433 0.924254 386.216 0.924254C393.878 0.963342 401.564 1.13924 409.104 0.396568C409.765 0.328165 410.401 0.113181 410.842 0.445428C411.185 0.6995 411.038 1.02198 410.524 1.26628C408.125 2.4096 405.138 3.05455 401.589 3.30862C390.745 4.07083 379.925 3.11318 369.08 3.24999C363.401 3.31839 357.771 2.83956 352.018 3.29884C349.277 3.51383 346.021 3.2793 343.426 3.06432C335.323 2.38028 327.221 3.04477 319.192 2.59526C318.139 2.53663 317.184 2.49754 316.132 2.28255C314.492 1.94053 312.215 0.904703 311.162 2.62457C311.113 2.71252 310.379 2.82001 310.134 2.77115C306.805 2.1262 303.207 3.25975 299.902 2.44868C299.094 2.25324 298.409 2.44868 297.527 2.75161C294.712 3.71903 291.75 4.45193 288.25 3.00568C287.246 2.58548 284.602 1.36398 283.721 3.32815C283.452 3.91447 281.836 3.99265 280.612 3.89493C276.377 3.54314 272.24 4.09037 268.079 4.07082C266.61 4.07082 265.215 4.09037 264.236 3.39656C263.452 2.84932 262.008 2.77115 260.637 3.1718C258.287 3.86561 256.035 3.7288 253.881 2.9959C252.29 3.52359 250.698 4.38353 250.038 2.63434C249.793 1.98939 248.348 1.97962 247.149 2.3705C243.918 3.45519 240.074 2.07734 236.77 2.84932C236.549 1.97962 236.133 1.80372 234.273 2.45844C233.073 2.87864 230.87 2.15551 229.793 2.30209C228.055 2.53662 224.995 2.59525 224.897 2.55616C222.082 1.12945 219.757 2.83955 217.186 2.81023C214.004 2.77114 210.675 2.06756 207.419 2.79069C207.223 2.82978 206.709 2.46821 206.269 2.4389C205.02 2.3314 203.723 1.11968 202.401 2.65388C201.764 3.39655 198.435 2.88841 196.771 2.7516C191.581 2.31186 186.563 2.53661 181.495 2.85909C180.712 2.90795 179.66 2.95681 179.145 2.79069C176.893 2.03824 174.764 1.17831 172.438 2.73205C166.734 1.56919 161.104 3.11316 155.229 2.87863C150.235 2.67342 144.703 2.17505 139.342 3.19133C137.31 3.57244 134.128 3.04475 131.533 3.45518C131.264 3.70925 130.799 3.75811 130.236 3.67993C130.113 3.67016 130.04 3.60176 129.942 3.56267C130.383 3.49426 130.848 3.41609 131.288 3.34768L131.386 3.39654L131.288 3.34768C128.008 2.65387 124.532 3.22065 121.448 3.40632C116.307 3.70925 111.264 3.90469 106.197 3.59198C100.689 3.24996 95.2304 3.59198 89.7715 3.57244C83.6517 3.55289 77.5074 3.14247 71.4121 3.27928C64.1172 3.4454 56.8713 3.03497 49.601 3.29882C45.5374 3.4454 41.5718 3.27927 37.5327 3.06429C35.6233 2.96657 33.6405 3.78742 31.3639 3.56266C27.4228 3.18155 23.6774 3.93399 19.9321 3.98285C14.3019 4.06103 8.62266 4.05126 2.99242 4.27601C-4.03314 4.5594 -11.1566 4.89165 -18.0843 4.84279C-26.1624 4.78415 -33.9714 5.66363 -42.025 5.52682C-47.3615 5.43887 -52.649 6.24995 -58.1324 5.96656C-59.748 5.87861 -61.3882 5.82975 -62.8325 5.52682C-63.6403 5.3607 -65.7944 5.52682 -64.6929 4.6278L-64.6684 4.58871ZM330.697 1.93076C330.795 2.02848 330.868 2.1262 330.966 2.22392C331.064 2.18484 331.235 2.13598 331.235 2.10666C331.186 2.00894 331.088 1.91122 330.991 1.8135C330.893 1.85259 330.795 1.89168 330.721 1.93076L330.697 1.93076ZM326.878 2.14575C327.123 2.18483 327.343 2.22392 327.588 2.26301L327.906 1.99917C327.71 1.96008 327.466 1.87213 327.343 1.90145C327.147 1.94054 327.025 2.0578 326.878 2.14575V2.14575ZM268.593 2.15551C270.233 2.56594 271.653 2.94705 273.244 2.22392C271.726 2.46822 270.38 1.6376 268.593 2.15551ZM264.75 2.30209L264.823 2.48776L265.141 2.4389C265.141 2.4389 265.141 2.35095 265.068 2.33141C264.97 2.30209 264.847 2.30209 264.725 2.29232L264.75 2.30209ZM252.681 2.86887L252.73 3.08385C253.097 3.04476 253.465 3.00568 253.832 2.96659C253.44 2.93727 253.073 2.90796 252.681 2.86887ZM148.889 1.68645C148.889 2.06756 149.452 2.10664 149.966 2.12619C150.211 2.12619 150.456 2.07733 150.701 2.04801C150.382 1.89166 150.113 1.70599 149.721 1.58873C149.55 1.53987 149.134 1.64736 148.865 1.67668L148.889 1.68645ZM139.93 2.04801L140.86 2.21413C140.933 2.11641 141.129 1.94052 141.105 1.93075C140.835 1.86234 140.517 1.81348 140.199 1.78417C140.174 1.78417 140.052 1.93075 139.93 2.04801V2.04801ZM116.993 2.68319C117.433 2.72228 117.825 2.80045 118.192 2.79068C119 2.77114 120.126 2.68319 119 2.25322C118.339 1.99915 117.556 2.37048 116.968 2.68319L116.993 2.68319Z" fill="#723A05" fill-opacity="0.8"/>
</svg>
