<svg width="824" height="153" viewBox="0 0 824 153" fill="none" xmlns="http://www.w3.org/2000/svg">
<path d="M411.997 53.9073L406.194 45.8499L407.473 44.0207C410.813 43.6453 413.639 45.6094 416.987 45.2773C418.656 45.1082 420.554 46.524 422.246 47.4048C425.519 49.1267 437.259 53.24 441.031 54.0871C446.494 55.3103 452.003 56.5031 456.469 60.1439L457.136 63.6624C453.842 68.8756 449.278 72.4433 444.102 75.6963C439.746 78.4257 435.632 81.7655 431.899 85.4608C427.958 89.3635 423.766 92.9768 418.725 95.4415C418.165 95.7185 417.682 96.175 417.104 96.3886C416.687 96.5513 416.168 96.4651 415.235 96.5188L415.168 91.8181C415.68 90.0577 417.813 89.1536 417.331 86.8864C417.215 86.3133 418.027 85.242 418.693 84.8497C422.807 82.4303 424.121 77.901 427.902 73.8112C421.416 75.3662 416.127 76.6354 410.866 77.8996L407.58 75.6012C403.498 75.7219 399.583 75.9095 396.236 72.6349C398.255 68.3594 402.491 67.6773 406.613 66.5625L407.067 63.5508C412.835 62.8054 418.546 62.0703 425.142 61.2231C420.905 57.2376 417.194 54.339 412.003 53.8988L411.997 53.9073Z" fill="#723A05" fill-opacity="0.2"/>
<path d="M498.196 96.2725L492.392 88.2151L493.672 86.3859C497.012 86.0105 499.838 87.9747 503.185 87.6425C504.855 87.4734 506.753 88.8893 508.445 89.7701C511.718 91.4919 523.458 95.6052 527.229 96.4523C532.692 97.6756 538.202 98.8683 542.668 102.509L543.334 106.028C540.041 111.241 535.477 114.809 530.301 118.061C525.945 120.791 521.83 124.131 518.098 127.826C514.157 131.729 509.965 135.342 504.924 137.807C504.364 138.084 503.881 138.54 503.303 138.754C502.886 138.917 502.366 138.83 501.433 138.884L501.366 134.183C501.879 132.423 504.012 131.519 503.53 129.252C503.414 128.678 504.226 127.607 504.891 127.215C509.005 124.795 510.319 120.266 514.101 116.176C507.615 117.731 502.326 119.001 497.065 120.265L493.779 117.966C489.697 118.087 485.782 118.275 482.434 115C484.454 110.725 488.69 110.043 492.812 108.928L493.266 105.916C499.034 105.171 504.745 104.436 511.341 103.588C507.104 99.6028 503.392 96.7043 498.201 96.2641L498.196 96.2725Z" fill="#723A05" fill-opacity="0.2"/>
<path d="M553.175 21.8004L548.119 13.2539L549.558 11.5471C552.918 11.4735 555.556 13.6838 558.92 13.6539C560.598 13.6356 562.361 15.2164 563.967 16.2457C567.072 18.2548 578.395 23.407 582.075 24.5897C587.406 26.2991 592.786 27.9824 596.906 32.01L597.254 35.5742C593.505 40.4701 588.639 43.6131 583.191 46.3875C578.607 48.7143 574.209 51.6706 570.159 55.0154C565.884 58.548 561.384 61.7698 556.141 63.7713C555.559 63.9969 555.037 64.4081 554.442 64.5688C554.012 64.6934 553.502 64.5609 552.568 64.5304L552.924 59.8428C553.593 58.1356 555.799 57.4269 555.522 55.1255C555.458 54.5443 556.364 53.5503 557.061 53.2195C561.376 51.1797 563.092 46.7869 567.226 43.0536C560.627 44.0192 555.245 44.8078 549.892 45.5939L546.826 43.0094C542.749 42.7626 538.833 42.5975 535.794 39.0353C538.189 34.9586 542.469 34.66 546.675 33.9204L547.398 30.9617C553.21 30.7379 558.963 30.5191 565.609 30.2684C561.747 25.9181 558.312 22.6976 553.181 21.7925L553.175 21.8004Z" fill="#723A05" fill-opacity="0.2"/>
<path d="M632.851 70.6123L627.796 62.0658L629.235 60.359C632.595 60.2854 635.233 62.4957 638.597 62.4658C640.275 62.4475 642.038 64.0282 643.643 65.0576C646.748 67.0667 658.071 72.2189 661.751 73.4016C667.082 75.111 672.462 76.7943 676.583 80.8219L676.93 84.386C673.182 89.282 668.315 92.425 662.868 95.1994C658.284 97.5261 653.886 100.483 649.836 103.827C645.56 107.36 641.06 110.582 635.818 112.583C635.236 112.809 634.713 113.22 634.118 113.381C633.689 113.505 633.179 113.373 632.245 113.342L632.601 108.655C633.27 106.947 635.476 106.239 635.199 103.937C635.135 103.356 636.04 102.362 636.738 102.031C641.053 99.9916 642.769 95.5988 646.903 91.8655C640.303 92.8311 634.921 93.6197 629.568 94.4058L626.502 91.8213C622.425 91.5745 618.509 91.4094 615.47 87.8471C617.866 83.7705 622.146 83.4719 626.351 82.7323L627.075 79.7736C632.886 79.5498 638.64 79.331 645.285 79.0803C641.424 74.73 637.988 71.5095 632.858 70.6044L632.851 70.6123Z" fill="#723A05" fill-opacity="0.2"/>
<path d="M723.215 33.7825L720.883 24.1304L722.759 22.9196C725.993 23.8331 727.869 26.7188 731.094 27.6751C732.704 28.149 733.926 30.1765 735.161 31.6309C737.541 34.4611 746.86 42.7026 750.032 44.9109C754.629 48.1063 759.28 51.291 762.041 56.3484L761.33 59.8582C756.312 63.442 750.739 65.0225 744.717 66.0804C739.653 66.9631 734.582 68.5023 729.731 70.5148C724.608 72.6408 719.362 74.4039 713.764 74.7828C713.141 74.8281 712.521 75.0684 711.905 75.0478C711.458 75.0412 711.009 74.7651 710.125 74.4626L711.838 70.0846C712.977 68.648 715.294 68.6162 715.703 66.3347C715.812 65.7601 716.968 65.0748 717.733 64.9628C722.456 64.2756 725.382 60.5778 730.428 58.2184C723.835 57.2096 718.458 56.3878 713.11 55.5721L710.935 52.2032C707.109 50.7737 703.413 49.4693 701.55 45.1733C705.034 41.9768 709.214 42.9443 713.451 43.4683L715.009 40.8511C720.632 42.3387 726.197 43.814 732.625 45.5199C730.206 40.2296 727.864 36.1444 723.224 33.7769L723.215 33.7825Z" fill="#723A05" fill-opacity="0.2"/>
<path d="M783.474 98.6892L781.142 89.0371L783.018 87.8264C786.252 88.7398 788.127 91.6256 791.352 92.5819C792.962 93.0557 794.185 95.0833 795.419 96.5377C797.8 99.3678 807.118 107.609 810.291 109.818C814.888 113.013 819.539 116.198 822.3 121.255L821.589 124.765C816.571 128.349 810.997 129.929 804.976 130.987C799.912 131.87 794.841 133.409 789.99 135.422C784.867 137.548 779.621 139.311 774.022 139.69C773.4 139.735 772.78 139.975 772.164 139.955C771.717 139.948 771.268 139.672 770.383 139.369L772.096 134.991C773.236 133.555 775.552 133.523 775.962 131.241C776.07 130.667 777.227 129.982 777.991 129.87C782.714 129.182 785.641 125.485 790.687 123.125C784.094 122.116 778.717 121.295 773.368 120.479L771.193 117.11C767.367 115.68 763.671 114.376 761.808 110.08C765.293 106.883 769.472 107.851 773.71 108.375L775.268 105.758C780.891 107.245 786.456 108.721 792.884 110.427C790.465 105.136 788.123 101.051 783.482 98.6836L783.474 98.6892Z" fill="#723A05" fill-opacity="0.2"/>
<path d="M-6.00323 53.9073L-11.8065 45.8499L-10.5269 44.0207C-7.18697 43.6453 -4.36099 45.6094 -1.01339 45.2773C0.656171 45.1082 2.55403 46.524 4.24596 47.4048C7.5189 49.1267 19.2593 53.24 23.0306 54.0871C28.4937 55.3103 34.0034 56.5031 38.469 60.1439L39.1357 63.6624C35.8423 68.8756 31.2783 72.4433 26.102 75.6963C21.746 78.4257 17.6316 81.7655 13.899 85.4608C9.95829 89.3635 5.766 92.9768 0.724953 95.4415C0.165403 95.7185 -0.317887 96.175 -0.896085 96.3886C-1.31259 96.5513 -1.83247 96.4651 -2.76547 96.5188L-2.83227 91.8181C-2.31979 90.0577 -0.186502 89.1536 -0.669025 86.8864C-0.785213 86.3133 0.0272179 85.242 0.692562 84.8497C4.80652 82.4303 6.1207 77.901 9.9022 73.8112C3.41644 75.3662 -1.87308 76.6354 -7.13382 77.8996L-10.4197 75.6012C-14.5022 75.7219 -18.4171 75.9095 -21.7643 72.6349C-19.7447 68.3594 -15.5091 67.6773 -11.3871 66.5625L-10.9326 63.5508C-5.16454 62.8054 0.545955 62.0703 7.14202 61.2231C2.90481 57.2376 -0.806259 54.339 -5.9973 53.8988L-6.00323 53.9073Z" fill="#723A05" fill-opacity="0.2"/>
<path d="M80.1955 96.2725L74.3923 88.2151L75.6718 86.3859C79.0118 86.0105 81.8377 87.9747 85.1853 87.6425C86.8549 87.4734 88.7528 88.8893 90.4447 89.7701C93.7176 91.4919 105.458 95.6052 109.229 96.4523C114.692 97.6756 120.202 98.8683 124.668 102.509L125.334 106.028C122.041 111.241 117.477 114.809 112.301 118.061C107.945 120.791 103.83 124.131 100.098 127.826C96.157 131.729 91.9647 135.342 86.9237 137.807C86.3641 138.084 85.8808 138.54 85.3026 138.754C84.8861 138.917 84.3663 138.83 83.4333 138.884L83.3665 134.183C83.8789 132.423 86.0122 131.519 85.5297 129.252C85.4135 128.678 86.2259 127.607 86.8913 127.215C91.0053 124.795 92.3194 120.266 96.1009 116.176C89.6152 117.731 84.3256 119.001 79.0649 120.265L75.7791 117.966C71.6965 118.087 67.7816 118.275 64.4345 115C66.454 110.725 70.6896 110.043 74.8116 108.928L75.2661 105.916C81.0342 105.171 86.7447 104.436 93.3408 103.588C89.1035 99.6028 85.3925 96.7043 80.2014 96.2641L80.1955 96.2725Z" fill="#723A05" fill-opacity="0.2"/>
<path d="M135.175 21.8004L130.119 13.2539L131.558 11.5471C134.918 11.4735 137.556 13.6838 140.92 13.6539C142.598 13.6356 144.361 15.2164 145.967 16.2457C149.072 18.2548 160.395 23.407 164.075 24.5897C169.406 26.2991 174.786 27.9824 178.906 32.01L179.254 35.5742C175.505 40.4701 170.639 43.6131 165.191 46.3875C160.607 48.7143 156.209 51.6706 152.159 55.0154C147.884 58.548 143.384 61.7698 138.141 63.7713C137.559 63.9969 137.037 64.4081 136.442 64.5688C136.012 64.6934 135.502 64.5609 134.568 64.5304L134.924 59.8428C135.593 58.1356 137.799 57.4269 137.522 55.1255C137.458 54.5443 138.363 53.5503 139.061 53.2195C143.376 51.1797 145.092 46.7869 149.226 43.0536C142.627 44.0192 137.245 44.8078 131.892 45.5939L128.826 43.0094C124.749 42.7626 120.833 42.5975 117.794 39.0353C120.189 34.9586 124.469 34.66 128.675 33.9204L129.398 30.9617C135.21 30.7379 140.963 30.5191 147.609 30.2684C143.747 25.9181 140.312 22.6976 135.181 21.7925L135.175 21.8004Z" fill="#723A05" fill-opacity="0.2"/>
<path d="M214.851 70.6123L209.796 62.0658L211.235 60.359C214.595 60.2854 217.233 62.4957 220.597 62.4658C222.275 62.4475 224.037 64.0282 225.643 65.0576C228.748 67.0667 240.071 72.2189 243.751 73.4016C249.082 75.111 254.462 76.7943 258.583 80.8219L258.93 84.386C255.181 89.282 250.315 92.425 244.867 95.1994C240.284 97.5261 235.886 100.483 231.836 103.827C227.56 107.36 223.06 110.582 217.818 112.583C217.236 112.809 216.713 113.22 216.118 113.381C215.689 113.505 215.179 113.373 214.245 113.342L214.601 108.655C215.27 106.947 217.476 106.239 217.199 103.937C217.135 103.356 218.04 102.362 218.738 102.031C223.053 99.9916 224.769 95.5988 228.903 91.8655C222.303 92.8311 216.921 93.6197 211.568 94.4058L208.502 91.8213C204.425 91.5745 200.509 91.4094 197.47 87.8471C199.866 83.7705 204.146 83.4719 208.351 82.7323L209.075 79.7736C214.886 79.5498 220.64 79.331 227.285 79.0803C223.424 74.73 219.988 71.5095 214.858 70.6044L214.851 70.6123Z" fill="#723A05" fill-opacity="0.2"/>
<path d="M305.215 33.7825L302.883 24.1304L304.759 22.9196C307.993 23.8331 309.869 26.7188 313.094 27.6751C314.704 28.149 315.926 30.1765 317.161 31.6309C319.541 34.4611 328.86 42.7026 332.032 44.9109C336.629 48.1063 341.28 51.291 344.041 56.3484L343.33 59.8582C338.312 63.442 332.739 65.0225 326.717 66.0804C321.653 66.9631 316.582 68.5023 311.731 70.5148C306.608 72.6408 301.362 74.4039 295.764 74.7828C295.141 74.8281 294.521 75.0684 293.905 75.0478C293.458 75.0412 293.009 74.7651 292.125 74.4626L293.838 70.0846C294.977 68.648 297.294 68.6162 297.703 66.3347C297.812 65.7601 298.968 65.0748 299.733 64.9628C304.456 64.2756 307.382 60.5778 312.428 58.2184C305.835 57.2096 300.458 56.3878 295.11 55.5721L292.935 52.2032C289.109 50.7737 285.413 49.4693 283.55 45.1733C287.034 41.9768 291.214 42.9443 295.451 43.4683L297.009 40.8511C302.632 42.3387 308.197 43.814 314.625 45.5199C312.206 40.2296 309.864 36.1444 305.224 33.7769L305.215 33.7825Z" fill="#723A05" fill-opacity="0.2"/>
<path d="M365.474 98.6892L363.142 89.0371L365.018 87.8264C368.252 88.7398 370.127 91.6256 373.352 92.5819C374.962 93.0557 376.185 95.0833 377.419 96.5377C379.8 99.3678 389.118 107.609 392.291 109.818C396.888 113.013 401.539 116.198 404.3 121.255L403.589 124.765C398.571 128.349 392.997 129.929 386.976 130.987C381.912 131.87 376.841 133.409 371.99 135.422C366.867 137.548 361.621 139.311 356.022 139.69C355.4 139.735 354.78 139.975 354.164 139.955C353.717 139.948 353.268 139.672 352.383 139.369L354.096 134.991C355.236 133.555 357.552 133.523 357.962 131.241C358.07 130.667 359.227 129.982 359.991 129.87C364.714 129.182 367.641 125.485 372.687 123.125C366.094 122.116 360.717 121.295 355.368 120.479L353.193 117.11C349.367 115.68 345.671 114.376 343.808 110.08C347.293 106.883 351.472 107.851 355.71 108.375L357.268 105.758C362.891 107.245 368.456 108.721 374.884 110.427C372.465 105.136 370.123 101.051 365.482 98.6836L365.474 98.6892Z" fill="#723A05" fill-opacity="0.2"/>
</svg>
