<svg width="819" height="153" viewBox="0 0 819 153" fill="none" xmlns="http://www.w3.org/2000/svg">
<path d="M411.804 53.9073L417.607 45.8499L416.328 44.0207C412.988 43.6453 410.162 45.6094 406.814 45.2773C405.145 45.1082 403.247 46.524 401.555 47.4048C398.282 49.1267 386.541 53.24 382.77 54.0871C377.307 55.3103 371.797 56.5031 367.332 60.1439L366.665 63.6624C369.958 68.8756 374.522 72.4433 379.699 75.6963C384.055 78.4257 388.169 81.7655 391.902 85.4608C395.842 89.3635 400.035 92.9768 405.076 95.4415C405.635 95.7185 406.119 96.175 406.697 96.3886C407.113 96.5513 407.633 96.4651 408.566 96.5188L408.633 91.8181C408.121 90.0577 405.987 89.1536 406.47 86.8864C406.586 86.3133 405.774 85.242 405.108 84.8497C400.994 82.4303 399.68 77.901 395.899 73.8112C402.384 75.3662 407.674 76.6354 412.935 77.8996L416.22 75.6012C420.303 75.7219 424.218 75.9095 427.565 72.6349C425.546 68.3594 421.31 67.6773 417.188 66.5625L416.733 63.5508C410.965 62.8054 405.255 62.0703 398.659 61.2231C402.896 57.2376 406.607 54.339 411.798 53.8988L411.804 53.9073Z" fill="#723A05" fill-opacity="0.2"/>
<path d="M325.605 96.2725L331.408 88.2151L330.129 86.3859C326.789 86.0105 323.963 87.9747 320.615 87.6425C318.946 87.4734 317.048 88.8893 315.356 89.7701C312.083 91.4919 300.343 95.6052 296.571 96.4523C291.108 97.6756 285.599 98.8683 281.133 102.509L280.466 106.028C283.76 111.241 288.324 114.809 293.5 118.061C297.856 120.791 301.97 124.131 305.703 127.826C309.644 131.729 313.836 135.342 318.877 137.807C319.437 138.084 319.92 138.54 320.498 138.754C320.915 138.917 321.434 138.83 322.367 138.884L322.434 134.183C321.922 132.423 319.789 131.519 320.271 129.252C320.387 128.678 319.575 127.607 318.909 127.215C314.795 124.795 313.481 120.266 309.7 116.176C316.186 117.731 321.475 119.001 326.736 120.265L330.022 117.966C334.104 118.087 338.019 118.275 341.366 115C339.347 110.725 335.111 110.043 330.989 108.928L330.535 105.916C324.767 105.171 319.056 104.436 312.46 103.588C316.697 99.6028 320.408 96.7043 325.599 96.2641L325.605 96.2725Z" fill="#723A05" fill-opacity="0.2"/>
<path d="M270.626 21.8004L275.682 13.2539L274.243 11.5471C270.883 11.4735 268.245 13.6838 264.881 13.6539C263.203 13.6356 261.44 15.2164 259.834 16.2457C256.729 18.2548 245.406 23.407 241.726 24.5897C236.395 26.2991 231.015 27.9824 226.895 32.01L226.547 35.5742C230.296 40.4701 235.162 43.6131 240.61 46.3875C245.194 48.7143 249.592 51.6706 253.641 55.0154C257.917 58.548 262.417 61.7698 267.659 63.7713C268.242 63.9969 268.764 64.4081 269.359 64.5688C269.788 64.6934 270.298 64.5609 271.232 64.5304L270.876 59.8428C270.208 58.1356 268.002 57.4269 268.279 55.1255C268.343 54.5443 267.437 53.5503 266.739 53.2195C262.425 51.1797 260.709 46.7869 256.575 43.0536C263.174 44.0192 268.556 44.8078 273.909 45.5939L276.975 43.0094C281.052 42.7626 284.968 42.5975 288.007 39.0353C285.611 34.9586 281.332 34.66 277.126 33.9204L276.403 30.9617C270.591 30.7379 264.837 30.5191 258.192 30.2684C262.054 25.9181 265.489 22.6976 270.62 21.7925L270.626 21.8004Z" fill="#723A05" fill-opacity="0.2"/>
<path d="M190.95 70.6123L196.005 62.0658L194.566 60.359C191.206 60.2854 188.568 62.4957 185.204 62.4658C183.526 62.4475 181.763 64.0282 180.157 65.0576C177.053 67.0667 165.73 72.2189 162.05 73.4016C156.719 75.111 151.339 76.7943 147.218 80.8219L146.871 84.386C150.619 89.282 155.486 92.425 160.933 95.1994C165.517 97.5261 169.915 100.483 173.965 103.827C178.24 107.36 182.741 110.582 187.983 112.583C188.565 112.809 189.087 113.22 189.682 113.381C190.112 113.505 190.622 113.373 191.556 113.342L191.2 108.655C190.531 106.947 188.325 106.239 188.602 103.937C188.666 103.356 187.761 102.362 187.063 102.031C182.748 99.9916 181.032 95.5988 176.898 91.8655C183.497 92.8311 188.88 93.6197 194.233 94.4058L197.299 91.8213C201.376 91.5745 205.291 91.4094 208.331 87.8471C205.935 83.7705 201.655 83.4719 197.45 82.7323L196.726 79.7736C190.914 79.5498 185.161 79.331 178.515 79.0803C182.377 74.73 185.813 71.5095 190.943 70.6044L190.95 70.6123Z" fill="#723A05" fill-opacity="0.2"/>
<path d="M100.586 33.7825L102.917 24.1304L101.042 22.9196C97.8075 23.8331 95.9323 26.7188 92.707 27.6751C91.0972 28.149 89.8744 30.1765 88.6402 31.6309C86.2596 34.4611 76.9412 42.7026 73.7688 44.9109C69.172 48.1063 64.5204 51.291 61.7599 56.3484L62.471 59.8582C67.489 63.442 73.0622 65.0225 79.0835 66.0804C84.1476 66.9631 89.2185 68.5023 94.07 70.5148C99.1925 72.6408 104.439 74.4039 110.037 74.7828C110.66 74.8281 111.28 75.0684 111.896 75.0478C112.343 75.0412 112.792 74.7651 113.676 74.4626L111.963 70.0846C110.824 68.648 108.507 68.6162 108.098 66.3347C107.989 65.7601 106.832 65.0748 106.068 64.9628C101.345 64.2756 98.4183 60.5778 93.3726 58.2184C99.9654 57.2096 105.343 56.3878 110.691 55.5721L112.866 52.2032C116.692 50.7737 120.388 49.4693 122.251 45.1733C118.767 41.9768 114.587 42.9443 110.349 43.4683L108.791 40.8511C103.169 42.3387 97.6035 43.814 91.1757 45.5199C93.5946 40.2296 95.9366 36.1444 100.577 33.7769L100.586 33.7825Z" fill="#723A05" fill-opacity="0.2"/>
<path d="M40.3271 98.6892L42.6587 89.0371L40.7832 87.8264C37.5488 88.7398 35.6735 91.6256 32.4483 92.5819C30.8385 93.0557 29.6156 95.0833 28.3815 96.5377C26.0009 99.3678 16.6824 107.609 13.5101 109.818C8.91318 113.013 4.26166 116.198 1.50111 121.255L2.21222 124.765C7.23018 128.349 12.8034 129.929 18.8247 130.987C23.8888 131.87 28.9597 133.409 33.8112 135.422C38.9338 137.548 44.18 139.311 49.7785 139.69C50.4012 139.735 51.0211 139.975 51.6371 139.955C52.0842 139.948 52.5331 139.672 53.4173 139.369L51.7044 134.991C50.5652 133.555 48.2484 133.523 47.8393 131.241C47.7304 130.667 46.5737 129.982 45.8095 129.87C41.0865 129.182 38.1596 125.485 33.1138 123.125C39.7066 122.116 45.0839 121.295 50.4325 120.479L52.6074 117.11C56.4334 115.68 60.1294 114.376 61.9924 110.08C58.5081 106.883 54.3284 107.851 50.0906 108.375L48.5326 105.758C42.9101 107.245 37.3447 108.721 30.9169 110.427C33.3358 105.136 35.6778 101.051 40.3184 98.6836L40.3271 98.6892Z" fill="#723A05" fill-opacity="0.2"/>
<path d="M830.804 53.9073L836.607 45.8499L835.328 44.0207C831.988 43.6453 829.162 45.6094 825.814 45.2773C824.145 45.1082 822.247 46.524 820.555 47.4048C817.282 49.1267 805.541 53.24 801.77 54.0871C796.307 55.3103 790.797 56.5031 786.332 60.1439L785.665 63.6624C788.958 68.8756 793.522 72.4433 798.699 75.6963C803.055 78.4257 807.169 81.7655 810.902 85.4608C814.842 89.3635 819.035 92.9768 824.076 95.4415C824.635 95.7185 825.119 96.175 825.697 96.3886C826.113 96.5513 826.633 96.4651 827.566 96.5188L827.633 91.8181C827.121 90.0577 824.987 89.1536 825.47 86.8864C825.586 86.3133 824.774 85.242 824.108 84.8497C819.994 82.4303 818.68 77.901 814.899 73.8112C821.384 75.3662 826.674 76.6354 831.935 77.8996L835.22 75.6012C839.303 75.7219 843.218 75.9095 846.565 72.6349C844.546 68.3594 840.31 67.6773 836.188 66.5625L835.733 63.5508C829.965 62.8054 824.255 62.0703 817.659 61.2231C821.896 57.2376 825.607 54.339 830.798 53.8988L830.804 53.9073Z" fill="#723A05" fill-opacity="0.2"/>
<path d="M744.605 96.2725L750.409 88.2151L749.129 86.3859C745.789 86.0105 742.963 87.9747 739.615 87.6425C737.946 87.4734 736.048 88.8893 734.356 89.7701C731.083 91.4919 719.343 95.6052 715.571 96.4523C710.108 97.6756 704.599 98.8683 700.133 102.509L699.466 106.028C702.76 111.241 707.324 114.809 712.5 118.061C716.856 120.791 720.97 124.131 724.703 127.826C728.644 131.729 732.836 135.342 737.877 137.807C738.437 138.084 738.92 138.54 739.498 138.754C739.915 138.917 740.435 138.83 741.368 138.884L741.434 134.183C740.922 132.423 738.789 131.519 739.271 129.252C739.387 128.678 738.575 127.607 737.909 127.215C733.796 124.795 732.481 120.266 728.7 116.176C735.186 117.731 740.475 119.001 745.736 120.265L749.022 117.966C753.104 118.087 757.019 118.275 760.366 115C758.347 110.725 754.111 110.043 749.989 108.928L749.535 105.916C743.767 105.171 738.056 104.436 731.46 103.588C735.697 99.6028 739.408 96.7043 744.599 96.2641L744.605 96.2725Z" fill="#723A05" fill-opacity="0.2"/>
<path d="M689.626 21.8004L694.682 13.2539L693.243 11.5471C689.883 11.4735 687.245 13.6838 683.881 13.6539C682.203 13.6356 680.44 15.2164 678.834 16.2457C675.729 18.2548 664.406 23.407 660.726 24.5897C655.395 26.2991 650.015 27.9824 645.895 32.01L645.547 35.5742C649.296 40.4701 654.162 43.6131 659.61 46.3875C664.194 48.7143 668.592 51.6706 672.641 55.0154C676.917 58.548 681.417 61.7698 686.659 63.7713C687.242 63.9969 687.764 64.4081 688.359 64.5688C688.788 64.6934 689.298 64.5609 690.233 64.5304L689.876 59.8428C689.208 58.1356 687.002 57.4269 687.279 55.1255C687.343 54.5443 686.437 53.5503 685.739 53.2195C681.425 51.1797 679.709 46.7869 675.575 43.0536C682.174 44.0192 687.556 44.8078 692.909 45.5939L695.975 43.0094C700.052 42.7626 703.968 42.5975 707.007 39.0353C704.611 34.9586 700.332 34.66 696.126 33.9204L695.403 30.9617C689.591 30.7379 683.837 30.5191 677.192 30.2684C681.054 25.9181 684.489 22.6976 689.62 21.7925L689.626 21.8004Z" fill="#723A05" fill-opacity="0.2"/>
<path d="M609.95 70.6123L615.005 62.0658L613.566 60.359C610.206 60.2854 607.568 62.4957 604.204 62.4658C602.526 62.4475 600.763 64.0282 599.157 65.0576C596.053 67.0667 584.73 72.2189 581.05 73.4016C575.719 75.111 570.339 76.7943 566.218 80.8219L565.871 84.386C569.619 89.282 574.486 92.425 579.933 95.1994C584.517 97.5261 588.915 100.483 592.965 103.827C597.24 107.36 601.741 110.582 606.983 112.583C607.565 112.809 608.087 113.22 608.682 113.381C609.112 113.505 609.622 113.373 610.556 113.342L610.2 108.655C609.531 106.947 607.325 106.239 607.602 103.937C607.666 103.356 606.761 102.362 606.063 102.031C601.748 99.9916 600.032 95.5988 595.898 91.8655C602.497 92.8311 607.88 93.6197 613.233 94.4058L616.299 91.8213C620.376 91.5745 624.291 91.4094 627.331 87.8471C624.935 83.7705 620.655 83.4719 616.45 82.7323L615.726 79.7736C609.914 79.5498 604.161 79.331 597.515 79.0803C601.377 74.73 604.813 71.5095 609.943 70.6044L609.95 70.6123Z" fill="#723A05" fill-opacity="0.2"/>
<path d="M519.586 33.7825L521.918 24.1304L520.042 22.9196C516.808 23.8331 514.932 26.7188 511.707 27.6751C510.097 28.149 508.874 30.1765 507.64 31.6309C505.26 34.4611 495.941 42.7026 492.769 44.9109C488.172 48.1063 483.52 51.291 480.76 56.3484L481.471 59.8582C486.489 63.442 492.062 65.0225 498.083 66.0804C503.148 66.9631 508.219 68.5023 513.07 70.5148C518.193 72.6408 523.439 74.4039 529.037 74.7828C529.66 74.8281 530.28 75.0684 530.896 75.0478C531.343 75.0412 531.792 74.7651 532.676 74.4626L530.963 70.0846C529.824 68.648 527.507 68.6162 527.098 66.3347C526.989 65.7601 525.832 65.0748 525.068 64.9628C520.345 64.2756 517.418 60.5778 512.373 58.2184C518.965 57.2096 524.343 56.3878 529.691 55.5721L531.866 52.2032C535.692 50.7737 539.388 49.4693 541.251 45.1733C537.767 41.9768 533.587 42.9443 529.349 43.4683L527.791 40.8511C522.169 42.3387 516.603 43.814 510.176 45.5199C512.595 40.2296 514.937 36.1444 519.577 33.7769L519.586 33.7825Z" fill="#723A05" fill-opacity="0.2"/>
<path d="M459.327 98.6892L461.659 89.0371L459.783 87.8264C456.549 88.7398 454.674 91.6256 451.448 92.5819C449.838 93.0557 448.616 95.0833 447.381 96.5377C445.001 99.3678 435.682 107.609 432.51 109.818C427.913 113.013 423.262 116.198 420.501 121.255L421.212 124.765C426.23 128.349 431.803 129.929 437.825 130.987C442.889 131.87 447.96 133.409 452.811 135.422C457.934 137.548 463.18 139.311 468.778 139.69C469.401 139.735 470.021 139.975 470.637 139.955C471.084 139.948 471.533 139.672 472.417 139.369L470.704 134.991C469.565 133.555 467.248 133.523 466.839 131.241C466.73 130.667 465.574 129.982 464.809 129.87C460.087 129.182 457.16 125.485 452.114 123.125C458.707 122.116 464.084 121.295 469.433 120.479L471.607 117.11C475.433 115.68 479.129 114.376 480.992 110.08C477.508 106.883 473.328 107.851 469.091 108.375L467.533 105.758C461.91 107.245 456.345 108.721 449.917 110.427C452.336 105.136 454.678 101.051 459.318 98.6836L459.327 98.6892Z" fill="#723A05" fill-opacity="0.2"/>
</svg>
