<svg width="5" height="68" viewBox="0 0 5 68" fill="none" xmlns="http://www.w3.org/2000/svg">
<path fill-rule="evenodd" clip-rule="evenodd" d="M1.09396 0C1.144 0.183693 1.21831 0.367714 1.29296 0.552597C1.48955 1.03951 1.68856 1.53238 1.45315 2.04092C1.3308 2.29982 1.51968 2.54044 1.70013 2.77029C1.84966 2.96078 1.9934 3.14388 1.9493 3.32384C1.73528 4.16386 1.56991 4.98861 1.71581 5.83371C1.85735 6.64854 1.80398 7.4619 1.75054 8.27616C1.7048 8.97287 1.65902 9.67024 1.73528 10.3698C1.81472 11.109 1.70888 11.8517 1.60299 12.5948C1.52727 13.126 1.45156 13.6574 1.44344 14.188C1.43673 14.5803 1.47295 14.9725 1.50924 15.3651C1.57796 16.109 1.64681 16.8544 1.42397 17.6041C1.11266 18.6579 1.30724 19.7066 1.60882 20.7757C1.64922 20.9159 1.70773 21.06 1.7673 21.2067C1.98034 21.7312 2.20696 22.2892 1.6672 22.8223C1.63027 22.7727 1.59051 22.7215 1.55096 22.6704C1.51757 22.6273 1.48434 22.5843 1.45315 22.5423C1.44018 22.5491 1.42397 22.5553 1.40777 22.5616C1.37533 22.574 1.34292 22.5864 1.33642 22.6034C1.2586 22.7205 1.30724 22.8172 1.56017 22.8732C1.76934 23.1495 1.73376 23.4577 1.7001 23.7495C1.66802 24.0277 1.63766 24.291 1.82284 24.4973C2.6824 25.4445 2.45361 26.4174 2.24004 27.3255C2.20223 27.4863 2.16488 27.6451 2.13415 27.8013C2.04107 28.2884 2.22939 28.7675 2.41619 29.2426C2.69796 29.9592 2.97622 30.667 2.28008 31.3803C3.73931 31.8365 3.06005 32.2566 2.34954 32.6959C2.30688 32.7222 2.26412 32.7487 2.2217 32.7752C2.05633 32.8821 2.10497 33.101 2.15362 33.2639C2.47463 34.3178 2.69839 35.3614 2.26061 36.4407C2.23739 36.4998 2.20339 36.5689 2.16668 36.6436C1.98809 37.0068 1.74465 37.5019 2.3579 37.6116C3.45275 37.8087 3.14291 38.0032 2.84023 38.1931C2.72066 38.2682 2.60223 38.3425 2.57192 38.416C2.55639 38.4648 2.44698 38.518 2.35403 38.5631C2.27245 38.6028 2.20351 38.6363 2.2217 38.6553C2.71493 39.1192 2.54147 39.5902 2.37078 40.0537C2.29235 40.2668 2.2145 40.4782 2.20223 40.6866C2.19186 40.8769 2.40081 41.0607 2.61028 41.2449C2.98934 41.5783 3.37002 41.9132 2.45519 42.2903C2.41628 42.3106 2.47463 42.947 2.70812 43.3085C2.76873 43.4015 2.67995 43.535 2.58544 43.6771C2.45238 43.8771 2.30791 44.0943 2.55248 44.2401C3.20428 44.627 3.02917 44.7136 2.16332 44.7594C2.52151 45.0797 2.41482 45.4244 2.30807 45.7691C2.18578 46.1641 2.06347 46.5592 2.64004 46.918C3.02917 47.1674 3.01943 47.4678 2.37737 47.5187C0.85781 47.6387 1.31612 47.9059 1.8066 48.1919C1.8782 48.2337 1.95049 48.2758 2.01742 48.318C1.28777 48.766 1.15157 49.2344 1.84231 49.7231C2.24117 50.0082 2.16332 50.3086 1.61855 50.4715C0.946281 50.6697 0.946769 50.9499 0.947288 51.2463V51.2708C0.939781 51.6048 1.01632 51.938 1.09301 52.272C1.21502 52.8034 1.33746 53.3365 1.1224 53.8774C1.02511 54.1319 1.10293 54.4679 1.68664 54.5239C3.55968 54.6995 2.52279 55.2113 2.06448 55.4376C2.04433 55.4476 2.02529 55.457 2.00768 55.4657C0.567863 56.1938 1.29751 56.8098 2.26061 57.3952C2.56219 57.5785 2.75677 57.7211 2.56219 57.8891C2.14046 58.248 2.24685 58.6237 2.35323 58.9993C2.45055 59.3428 2.54787 59.6864 2.24117 60.0171C2.19253 60.068 2.29952 60.2207 2.38708 60.2309C3.79522 60.4109 3.34783 60.7632 2.9551 61.0723C2.87029 61.1391 2.78805 61.2038 2.72759 61.2644C2.52996 61.4665 2.48165 61.6513 2.42947 61.8507C2.42513 61.8673 2.42077 61.884 2.41628 61.9008C2.21389 62.656 2.23833 63.4143 2.26284 64.1744C2.29253 65.0948 2.32232 66.0178 1.9493 66.9408C1.73528 67.4805 1.50179 68.1576 1.71584 68.7278C2.00472 69.4836 1.9208 70.2294 1.837 70.9739C1.78817 71.4078 1.7394 71.8413 1.76446 72.2762C1.81744 73.1534 1.70559 74.0298 1.59377 74.906C1.41808 76.2827 1.24242 77.6589 1.70611 79.037C1.95904 79.7752 2.60113 80.3963 3.73934 80.8952C3.98254 81.0021 4.30358 81.0327 4.55651 80.9614C4.81277 80.8904 4.74206 80.795 4.66552 80.6917C4.64327 80.6616 4.62051 80.6309 4.60516 80.5999C3.96163 79.2352 4.01089 77.8472 4.06014 76.4597C4.06747 76.253 4.07479 76.0464 4.07983 75.8399C4.07983 75.8076 4.07485 75.7728 4.06976 75.7373C4.04919 75.5937 4.02669 75.4368 4.32305 75.3715C5.30559 75.1577 5.01376 74.7148 4.71218 74.4958C4.18478 74.118 4.20556 73.7401 4.22695 73.3503C4.23122 73.2728 4.2355 73.1948 4.2355 73.1162C4.2452 71.9147 4.25494 70.7133 4.39114 69.5067C4.55462 68.025 4.53789 66.5409 4.52117 65.0577C4.51299 64.3343 4.50484 63.6111 4.5176 62.8884C4.54009 61.8294 4.57503 60.7716 4.60998 59.7143C4.65063 58.4843 4.69125 57.255 4.71218 56.0258C4.77053 52.6657 4.80947 49.3107 4.83865 45.9507C4.86782 43.4663 4.89703 40.9768 4.87756 38.4873L4.8745 38.098C4.85656 35.7785 4.83858 33.4552 4.66354 31.141C4.64263 30.8675 4.68639 30.596 4.73 30.3254C4.78786 29.9665 4.84539 29.6094 4.75109 29.2523C4.41512 27.994 4.3691 26.7287 4.32305 25.4627C4.30111 24.8591 4.27917 24.2554 4.22576 23.6522C4.17809 23.1247 4.06368 22.5973 3.94927 22.0698C3.90023 21.8438 3.85119 21.6178 3.80743 21.3918L3.85607 21.3765C3.8366 21.3663 3.78799 21.3561 3.78799 21.3561C3.77825 21.351 3.76852 21.3459 3.75878 21.3459C4.03667 21.2754 4.0303 21.1591 4.02355 21.0367C4.02251 21.0177 4.02145 20.9986 4.02145 20.9794C4.01174 20.7924 4.00222 20.6055 3.9927 20.4185C3.90688 18.732 3.8211 17.0455 3.59341 15.3589C3.19454 12.3553 3.19454 9.34648 3.35992 6.33262C3.46728 4.22175 3.51418 2.11087 3.51018 0H1.09396ZM2.78594 64.3495C2.88323 64.3291 2.98052 64.3139 3.07781 64.2935V64.2986C3.1057 64.3096 3.1336 64.3231 3.16149 64.3374C3.17251 64.3431 3.18352 64.3488 3.19454 64.3546C3.11419 64.3714 3.03384 64.3883 2.95351 64.3993C2.93658 64.4017 2.91964 64.4037 2.9027 64.4055C2.8735 64.4055 2.82485 64.3699 2.78594 64.3495ZM2.74703 63.647C2.78594 63.5961 2.82485 63.5502 2.86379 63.4993C2.88692 63.5074 2.91207 63.5151 2.93728 63.5228C3.00756 63.5444 3.07836 63.5661 3.10699 63.5961C3.12749 63.6139 3.09035 63.6444 3.05294 63.675C3.03713 63.688 3.02126 63.701 3.0097 63.7132L2.74703 63.647ZM2.82708 51.4002L2.85406 51.3777C3.14416 51.5868 3.00924 51.7669 2.87905 51.9407C2.77788 52.0757 2.67959 52.2069 2.78594 52.345C2.08196 52.0214 2.42925 51.7318 2.82708 51.4002ZM2.52328 50.5937L2.70812 50.5784L2.71786 50.5733C2.70812 50.5988 2.70812 50.6242 2.67895 50.6446C2.65948 50.6599 2.57192 50.6599 2.57192 50.6599L2.52328 50.5937ZM1.92986 48.0787L2.14388 48.0685C2.10497 48.15 2.07577 48.2264 2.04659 48.3078L1.92986 48.0787ZM2.88323 26.7068C2.9027 26.5998 2.94161 26.4827 3.32101 26.4827L3.33074 26.4777C3.33999 26.4954 3.35705 26.5162 3.37447 26.5375C3.4121 26.5834 3.45153 26.6315 3.4183 26.6558C3.33575 26.7134 3.21917 26.7583 3.1029 26.8031C3.05474 26.8216 3.00664 26.8401 2.96105 26.8595C2.95272 26.8449 2.94277 26.8304 2.93285 26.8158C2.90804 26.7795 2.88323 26.7431 2.88323 26.7068ZM2.79568 24.8129L2.96105 24.6195C3.00814 24.6297 3.05996 24.64 3.10506 24.6489C3.17178 24.6621 3.22372 24.6724 3.22372 24.6755C3.19454 24.7416 3.1459 24.8078 3.07781 24.8638C3.07235 24.8667 3.01473 24.8551 2.94802 24.8417C2.89596 24.8312 2.83834 24.8196 2.79568 24.8129ZM2.27941 19.9411C2.29702 19.9116 2.31521 19.881 2.32873 19.8492V19.8441C2.64004 19.9663 3.0097 20.1292 2.75677 20.2667C2.32873 20.5008 2.24117 20.2667 2.2217 20.0986C2.21535 20.0488 2.24633 19.9968 2.27941 19.9411Z" fill="#723A05" fill-opacity="0.8"/>
</svg>
